<svg width="38" height="37" viewBox="0 0 38 37" fill="none" xmlns="http://www.w3.org/2000/svg">
<path d="M38 18.5C38 8.28164 29.4945 0 19 0C8.50547 0 0 8.28164 0 18.5C0 28.7184 8.50547 37 19 37C19.1113 37 19.2227 37 19.334 36.9928V22.5975H15.252V17.9652H19.334V14.5543C19.334 10.6014 21.8129 8.44785 25.4348 8.44785C27.1715 8.44785 28.6633 8.5707 29.0938 8.62852V12.7621H26.6C24.6332 12.7621 24.2473 13.6727 24.2473 15.0096V17.958H28.9602L28.3441 22.5902H24.2473V36.2846C32.1887 34.066 38 26.9479 38 18.5Z" fill="black" fill-opacity="0.81"/>
</svg>
