<svg width="46" height="47" viewBox="0 0 46 47" fill="none" xmlns="http://www.w3.org/2000/svg">
<path d="M42.1666 0H3.83336C1.68664 0 0 1.7233 0 3.9167V43.0834C0 45.2767 1.68664 47 3.83336 47H21.4667H30.6667H42.1667C44.3134 47 46 45.2767 46 43.0833V3.9167C46 1.7233 44.3134 0 42.1666 0ZM23 45.4333V29.7667H16.8666V23.5H23V18.0167C23 13.5517 26.3734 9.7917 30.6666 9.4H37.5666V15.6667H31.4333C30.1299 15.6667 29.1333 16.685 29.1333 18.0167V23.5H36.8V29.7667H29.1334V45.4334H23V45.4333ZM44.4666 43.0833C44.4666 44.415 43.47 45.4333 42.1666 45.4333H30.6666V31.3333H38.3333V21.9333H30.6666V18.0166C30.6666 17.5466 30.9733 17.2333 31.4333 17.2333H39.1V7.8333H30.59C25.4534 8.3033 21.4666 12.7683 21.4666 18.0166V21.9333H15.3333V31.3333H21.4666V45.4333H3.83336C2.53 45.4333 1.53336 44.415 1.53336 43.0833V3.9167C1.53336 2.585 2.53 1.5667 3.83336 1.5667H42.1667C43.4701 1.5667 44.4667 2.585 44.4667 3.9167V43.0833H44.4666Z" fill="url(#paint0_linear)"/>
<defs>
<linearGradient id="paint0_linear" x1="23" y1="0" x2="23" y2="47" gradientUnits="userSpaceOnUse">
<stop/>
<stop offset="1"/>
</linearGradient>
</defs>
</svg>
