<svg width="46" height="47" viewBox="0 0 46 47" fill="none" xmlns="http://www.w3.org/2000/svg">
<path d="M32.89 0H13.11C5.90336 0 0 6.0317 0 13.395V33.605C0 40.9683 5.90336 47 13.11 47H32.89C40.0966 47 46 40.9683 46 33.605V13.395C46 6.0317 40.0966 0 32.89 0ZM44.4666 33.605C44.4666 40.1067 39.2533 45.4333 32.89 45.4333H13.11C6.74664 45.4333 1.53336 40.1066 1.53336 33.605V13.395C1.53336 6.8933 6.74673 1.5667 13.11 1.5667H32.89C39.2534 1.5667 44.4666 6.89339 44.4666 13.395V33.605Z" fill="url(#paint0_linear)"/>
<path d="M32.8896 4.7002H13.1096C8.43297 4.7002 4.59961 8.61689 4.59961 13.3952V33.6052C4.59961 38.3835 8.43297 42.3002 13.1096 42.3002H32.8896C37.5662 42.3002 41.3996 38.3835 41.3996 33.6052V13.3952C41.3996 8.61689 37.5662 4.7002 32.8896 4.7002ZM39.8662 33.6052C39.8662 37.5219 36.7229 40.7335 32.8896 40.7335H13.1096C9.27625 40.7335 6.13297 37.5218 6.13297 33.6052V13.3952C6.13297 9.4785 9.27634 6.26689 13.1096 6.26689H32.8896C36.723 6.26689 39.8662 9.47859 39.8662 13.3952V33.6052Z" fill="url(#paint1_linear)"/>
<path d="M23 10.9668C16.2534 10.9668 10.7334 16.6068 10.7334 23.5001C10.7334 30.3934 16.2534 36.0334 23 36.0334C29.7467 36.0334 35.2667 30.3934 35.2667 23.5001C35.2667 16.6068 29.7467 10.9668 23 10.9668ZM23 34.4668C17.0967 34.4668 12.2667 29.5318 12.2667 23.5001C12.2667 17.4684 17.0967 12.5334 23 12.5334C28.9034 12.5334 33.7334 17.4684 33.7334 23.5001C33.7334 29.5318 28.9034 34.4668 23 34.4668Z" fill="url(#paint2_linear)"/>
<path d="M22.9998 14.8838C18.3231 14.8838 14.5664 18.7221 14.5664 23.5005C14.5664 28.2788 18.323 32.1172 22.9998 32.1172C27.6765 32.1172 31.4331 28.2789 31.4331 23.5005C31.4331 18.7221 27.6764 14.8838 22.9998 14.8838ZM22.9998 30.5505C19.1664 30.5505 16.0998 27.4172 16.0998 23.5005C16.0998 19.5838 19.1664 16.4505 22.9998 16.4505C26.8331 16.4505 29.8998 19.5838 29.8998 23.5005C29.8998 27.4172 26.8331 30.5505 22.9998 30.5505Z" fill="url(#paint3_linear)"/>
<path d="M35.2668 8.61621C33.9634 8.61621 32.9668 9.63451 32.9668 10.9662C32.9668 12.2979 33.9634 13.3162 35.2668 13.3162C36.5702 13.3162 37.5668 12.2979 37.5668 10.9662C37.5668 9.63451 36.5702 8.61621 35.2668 8.61621Z" fill="url(#paint4_linear)"/>
<defs>
<linearGradient id="paint0_linear" x1="23" y1="0" x2="23" y2="47" gradientUnits="userSpaceOnUse">
<stop/>
<stop offset="1"/>
</linearGradient>
<linearGradient id="paint1_linear" x1="22.9996" y1="4.7002" x2="22.9996" y2="42.3002" gradientUnits="userSpaceOnUse">
<stop/>
<stop offset="1"/>
</linearGradient>
<linearGradient id="paint2_linear" x1="23" y1="10.9668" x2="23" y2="36.0334" gradientUnits="userSpaceOnUse">
<stop/>
<stop offset="1"/>
</linearGradient>
<linearGradient id="paint3_linear" x1="22.9998" y1="14.8838" x2="22.9998" y2="32.1172" gradientUnits="userSpaceOnUse">
<stop/>
<stop offset="1"/>
</linearGradient>
<linearGradient id="paint4_linear" x1="35.2668" y1="8.61621" x2="35.2668" y2="13.3162" gradientUnits="userSpaceOnUse">
<stop/>
<stop offset="1"/>
</linearGradient>
</defs>
</svg>
