<svg width="46" height="47" viewBox="0 0 46 47" fill="none" xmlns="http://www.w3.org/2000/svg">
<path d="M45.5392 13.5349C45.5392 13.3779 45.0785 9.92558 43.6194 8.27783C41.8531 6.31626 39.9333 6.08087 38.935 6.00234H38.6278C32.4074 5.53156 23.1153 5.45312 22.9617 5.45312C22.8849 5.45312 13.516 5.53156 7.37237 6.1593H7.14199C6.06674 6.23774 4.14691 6.47313 2.45746 8.4347C0.921535 10.0824 0.460768 13.6133 0.460768 13.7703C0.460768 13.7703 0 17.772 0 21.7736V25.4615C0 29.3847 0.460768 33.3864 0.460768 33.4648C0.460768 33.6218 0.921535 37.0741 2.3806 38.7219C3.99329 40.605 5.91312 40.8404 7.1419 40.9973C7.37228 40.9973 7.5259 40.9973 7.75628 41.0758C11.2888 41.3896 22.5008 41.5466 22.9616 41.5466C23.0384 41.5466 32.4074 41.5466 38.6277 40.8404H38.8581C39.9333 40.762 41.8531 40.5266 43.5425 38.5649C45.0785 36.9172 45.5392 33.3863 45.5392 33.2293C45.5392 33.2293 46 29.2276 46 25.226V21.5382C46 17.615 45.5392 13.6133 45.5392 13.5349ZM44.4641 25.3829C44.4641 29.3062 44.0033 33.2293 44.0033 33.2293C43.8497 34.0924 43.3889 36.6032 42.3906 37.7018C41.0851 39.2711 39.5493 39.4279 38.7045 39.5065H38.4741C32.3305 39.9773 23.0384 39.9773 22.9616 39.9773C22.8849 39.9773 11.3657 39.8203 7.98667 39.428C7.75629 39.428 7.5259 39.3496 7.29552 39.3496C6.22036 39.2712 4.68453 39.0358 3.45576 37.6234C2.53422 36.6034 1.99669 34.0925 1.91984 33.2294C1.91984 33.151 1.45907 29.2277 1.45907 25.383V21.6952C1.45907 17.772 1.91984 13.8488 1.91984 13.8488C1.9966 12.9857 2.53422 10.4749 3.45576 9.37636C4.83806 7.80705 6.29713 7.65009 7.21866 7.57165H7.44905C13.5926 7.10087 22.8848 7.02244 22.9615 7.02244C23.0383 7.02244 32.3305 7.10087 38.474 7.57165H38.7812C39.6259 7.65009 41.1618 7.80705 42.4673 9.37636C43.3888 10.4749 43.8496 12.9857 44.0032 13.8488C44.08 14.0058 44.464 17.9289 44.464 21.6952V25.3829H44.4641Z" fill="url(#paint0_linear)"/>
<path d="M32.5612 23.5782L17.9703 14.8687C17.7399 14.7117 17.4327 14.7117 17.2024 14.8687C16.972 15.0257 16.8184 15.261 16.8184 15.5749V32.6015C16.8184 32.9154 16.972 33.1508 17.2024 33.3077C17.356 33.3862 17.4327 33.3862 17.5864 33.3862C17.74 33.3862 17.8167 33.3862 17.9704 33.3077L32.5613 24.9906C32.7917 24.8336 32.9453 24.5982 32.9453 24.2844C32.9453 23.9706 32.7916 23.7351 32.5612 23.5782ZM18.3543 31.2676V16.9087L30.6414 24.2843L18.3543 31.2676Z" fill="url(#paint1_linear)"/>
<defs>
<linearGradient id="paint0_linear" x1="23" y1="5.45312" x2="23" y2="41.5466" gradientUnits="userSpaceOnUse">
<stop/>
<stop offset="1"/>
</linearGradient>
<linearGradient id="paint1_linear" x1="24.8818" y1="14.751" x2="24.8818" y2="33.3862" gradientUnits="userSpaceOnUse">
<stop/>
<stop offset="1"/>
</linearGradient>
</defs>
</svg>
