<svg width="47" height="47" viewBox="0 0 47 47" fill="none" xmlns="http://www.w3.org/2000/svg">
<g clip-path="url(#clip0)">
<path d="M6.345 0.391602C4.6217 0.391602 3.055 1.0183 1.88 2.1933C0.626697 3.4466 0 5.01321 0 6.65821C0 8.38151 0.705 9.94821 1.88 11.1232C3.055 12.2982 4.7 13.0032 6.2667 12.9249C6.2667 12.9249 6.345 12.9249 6.42339 12.9249C7.99009 12.9249 9.47839 12.2982 10.6534 11.1232C11.8284 9.94821 12.5334 8.38151 12.5334 6.65821C12.6117 5.01321 11.9067 3.44651 10.7317 2.27151C9.5567 1.01821 7.99 0.391602 6.345 0.391602ZM9.5567 10.0266C8.695 10.8883 7.52 11.4366 6.2667 11.3583C5.0917 11.3583 3.83839 10.8883 2.9767 10.0266C2.0367 9.1649 1.5667 7.9116 1.5667 6.6583C1.5667 5.405 2.0367 4.23 2.9767 3.29C3.83839 2.4283 5.01339 1.9583 6.345 1.9583C7.52 1.9583 8.695 2.4283 9.5567 3.29C10.4967 4.23 10.9667 5.405 10.9667 6.6583C10.9667 7.9116 10.4967 9.1649 9.5567 10.0266Z" fill="url(#paint0_linear)"/>
<path d="M9.3999 14.4922H3.0549C1.8016 14.4922 0.783203 15.5105 0.783203 16.8422V44.2589C0.783203 45.5122 1.8799 46.6089 3.1332 46.6089H9.3999C10.6532 46.6089 11.7499 45.5122 11.7499 44.3372V16.8422C11.7499 15.5888 10.6532 14.4922 9.3999 14.4922ZM10.1832 44.3372C10.1832 44.7289 9.7915 45.0422 9.3999 45.0422H3.1332C2.74151 45.0422 2.3499 44.6505 2.3499 44.2589V16.8422C2.3499 16.4505 2.6632 16.0589 3.0549 16.0589H9.3999C9.7916 16.0589 10.1832 16.4506 10.1832 16.8422V44.3372Z" fill="url(#paint1_linear)"/>
<path d="M36.0329 13.708H34.3879C31.3329 13.708 28.4346 15.0397 26.5546 17.1547V16.058C26.5546 15.2747 25.7713 14.4913 24.9879 14.4913H17.1546C16.4496 14.4913 15.5879 15.118 15.5879 15.9796V45.1979C15.5879 46.0596 16.4496 46.6079 17.1546 46.6079H25.7713C26.4763 46.6079 27.338 46.0596 27.338 45.1979V28.2779C27.338 25.6929 29.218 23.6562 31.6463 23.6562C32.8996 23.6562 34.0746 24.1262 34.9363 24.9879C35.7196 25.6929 36.033 26.7896 36.033 28.1996V45.0413C36.033 45.8246 36.8163 46.608 37.5997 46.608H45.433C46.2163 46.608 46.9997 45.8247 46.9997 45.0413V24.8313C46.9996 18.5647 42.2213 13.708 36.0329 13.708ZM45.4329 44.963L45.3546 45.0413H37.6779L37.5996 28.1997C37.5996 26.3197 37.1296 24.9097 36.1113 23.8914C34.9363 22.7164 33.3696 22.0897 31.7246 22.0897C28.4346 22.168 25.8496 24.8314 25.8496 28.278V45.0413H17.2329V16.058H24.9879L25.0662 16.1363V21.0713L27.1812 18.9563L27.2595 18.878C28.8262 16.6847 31.5678 15.2747 34.4662 15.2747H36.1112C41.3595 15.2747 45.4329 19.5047 45.4329 24.8314V44.963Z" fill="url(#paint2_linear)"/>
</g>
<defs>
<linearGradient id="paint0_linear" x1="6.26965" y1="0.391602" x2="6.26965" y2="12.9308" gradientUnits="userSpaceOnUse">
<stop/>
<stop offset="1"/>
</linearGradient>
<linearGradient id="paint1_linear" x1="6.26655" y1="14.4922" x2="6.26655" y2="46.6089" gradientUnits="userSpaceOnUse">
<stop/>
<stop offset="1"/>
</linearGradient>
<linearGradient id="paint2_linear" x1="31.2938" y1="13.708" x2="31.2938" y2="46.608" gradientUnits="userSpaceOnUse">
<stop/>
<stop offset="1"/>
</linearGradient>
<clipPath id="clip0">
<rect width="47" height="47" fill="white"/>
</clipPath>
</defs>
</svg>
