<svg width="38" height="37" viewBox="0 0 38 37" fill="none" xmlns="http://www.w3.org/2000/svg">
<path d="M19 0C8.50819 0 0 8.28429 0 18.5C0 28.7157 8.50819 37 19 37C29.4918 37 38 28.7157 38 18.5C38 8.28429 29.4918 0 19 0ZM13.4788 27.9668H8.85146V14.4116H13.4788V27.9668ZM11.1653 12.5607H11.1351C9.58234 12.5607 8.57806 11.5199 8.57806 10.2191C8.57806 8.88895 9.61307 7.87695 11.196 7.87695C12.779 7.87695 13.7531 8.88895 13.7832 10.2191C13.7832 11.5199 12.779 12.5607 11.1653 12.5607ZM30.1641 27.9668H25.5373V20.7151C25.5373 18.8927 24.8673 17.6497 23.1931 17.6497C21.9148 17.6497 21.1535 18.4881 20.8189 19.2975C20.6966 19.5871 20.6667 19.9919 20.6667 20.397V27.9668H16.0397C16.0397 27.9668 16.1003 15.6833 16.0397 14.4116H20.6667V16.3309C21.2816 15.4073 22.3819 14.0935 24.8369 14.0935C27.8813 14.0935 30.1641 16.0308 30.1641 20.1943V27.9668Z" fill="black" fill-opacity="0.81"/>
</svg>
