<svg width="38" height="37" viewBox="0 0 38 37" fill="none" xmlns="http://www.w3.org/2000/svg">
<path d="M22.6367 18.5C22.6367 20.4557 21.0085 22.041 19 22.041C16.9915 22.041 15.3633 20.4557 15.3633 18.5C15.3633 16.5443 16.9915 14.959 19 14.959C21.0085 14.959 22.6367 16.5443 22.6367 18.5Z" fill="black" fill-opacity="0.81"/>
<path d="M27.5052 12.2349C27.3304 11.7736 27.0515 11.3561 26.6891 11.0134C26.3371 10.6606 25.9086 10.389 25.4346 10.2188C25.0502 10.0734 24.4727 9.90038 23.4089 9.85324C22.2583 9.80215 21.9133 9.79114 19.0002 9.79114C16.0868 9.79114 15.7418 9.80186 14.5914 9.85296C13.5277 9.90038 12.9499 10.0734 12.5658 10.2188C12.0918 10.389 11.663 10.6606 11.3113 11.0134C10.9489 11.3561 10.67 11.7734 10.4949 12.2349C10.3456 12.6092 10.1679 13.1718 10.1194 14.2075C10.067 15.3276 10.0557 15.6636 10.0557 18.5003C10.0557 21.3367 10.067 21.6726 10.1194 22.793C10.1679 23.8287 10.3456 24.3911 10.4949 24.7654C10.67 25.2269 10.9486 25.6441 11.311 25.9868C11.663 26.3397 12.0915 26.6113 12.5655 26.7815C12.9499 26.9271 13.5277 27.1002 14.5914 27.1473C15.7418 27.1984 16.0865 27.2091 18.9999 27.2091C21.9136 27.2091 22.2586 27.1984 23.4087 27.1473C24.4724 27.1002 25.0502 26.9271 25.4346 26.7815C26.3861 26.4241 27.1381 25.6918 27.5052 24.7654C27.6545 24.3911 27.8322 23.8287 27.8809 22.793C27.9334 21.6726 27.9444 21.3367 27.9444 18.5003C27.9444 15.6636 27.9334 15.3276 27.8809 14.2075C27.8325 13.1718 27.6548 12.6092 27.5052 12.2349ZM19.0002 23.9549C15.9059 23.9549 13.3975 21.5129 13.3975 18.5C13.3975 15.4871 15.9059 13.0451 19.0002 13.0451C22.0942 13.0451 24.6025 15.4871 24.6025 18.5C24.6025 21.5129 22.0942 23.9549 19.0002 23.9549ZM24.824 14.1042C24.101 14.1042 23.5148 13.5334 23.5148 12.8294C23.5148 12.1254 24.101 11.5546 24.824 11.5546C25.5471 11.5546 26.1333 12.1254 26.1333 12.8294C26.133 13.5334 25.5471 14.1042 24.824 14.1042Z" fill="black" fill-opacity="0.81"/>
<path d="M19 0C8.50819 0 0 8.28429 0 18.5C0 28.7157 8.50819 37 19 37C29.4918 37 38 28.7157 38 18.5C38 8.28429 29.4918 0 19 0ZM29.8443 22.8797C29.7916 24.0105 29.6069 24.7826 29.3373 25.4584C28.7705 26.8854 27.612 28.0134 26.1465 28.5652C25.4527 28.8278 24.6595 29.0073 23.4984 29.059C22.3349 29.1106 21.9632 29.123 19.0003 29.123C16.037 29.123 15.6657 29.1106 14.5019 29.059C13.3408 29.0073 12.5476 28.8278 11.8538 28.5652C11.1256 28.2985 10.4663 27.8804 9.92125 27.3398C9.36635 26.8094 8.93698 26.1672 8.66301 25.4584C8.39339 24.7829 8.20871 24.0105 8.15594 22.88C8.10231 21.7469 8.08984 21.385 8.08984 18.5C8.08984 15.615 8.10231 15.2531 8.15565 14.1203C8.20842 12.9895 8.39281 12.2174 8.66243 11.5416C8.9364 10.8328 9.36606 10.1906 9.92125 9.66016C10.466 9.11958 11.1256 8.70152 11.8535 8.43475C12.5476 8.17223 13.3405 7.99269 14.5019 7.94103C15.6654 7.88937 16.037 7.87695 19 7.87695C21.963 7.87695 22.3346 7.88937 23.4981 7.94131C24.6595 7.99269 25.4524 8.17223 26.1465 8.43447C26.8744 8.70123 27.534 9.11958 28.079 9.66016C28.6339 10.1909 29.0636 10.8328 29.3373 11.5416C29.6072 12.2174 29.7916 12.9895 29.8446 14.1203C29.8977 15.2531 29.9102 15.615 29.9102 18.5C29.9102 21.385 29.8977 21.7469 29.8443 22.8797Z" fill="black" fill-opacity="0.81"/>
</svg>
