<svg width="44" height="44" viewBox="0 0 44 44" fill="none" xmlns="http://www.w3.org/2000/svg">
<path d="M21.858 0C9.78616 0 0 9.78616 0 21.858C0 33.9298 9.78616 43.716 21.858 43.716C33.9298 43.716 43.716 33.9298 43.716 21.858C43.7032 9.79156 33.9245 0.0128989 21.858 0ZM33.8909 15.1554L18.2779 30.7683C17.6682 31.3778 16.6799 31.3778 16.0703 30.7683L9.82513 24.5231C9.20489 23.9241 9.18769 22.9357 9.78671 22.3155C10.3857 21.6952 11.3741 21.678 11.9943 22.2771C12.0073 22.2897 12.0201 22.3024 12.0328 22.3155L17.1741 27.4569L31.6832 12.9478C32.3035 12.3487 33.2918 12.3659 33.8909 12.9861C34.4752 13.5912 34.4752 14.5503 33.8909 15.1554Z" fill="#4E5AF2"/>
</svg>
