<svg width="33" height="33" viewBox="0 0 33 33" fill="none" xmlns="http://www.w3.org/2000/svg">
<path d="M30.3947 21.7279C28.3591 21.7279 26.3653 21.4101 24.4756 20.7865C23.5533 20.4687 22.506 20.7136 21.8999 21.3319L18.1535 24.1612C13.8548 21.8669 11.1036 19.1174 8.84056 14.85L11.5934 11.1922C12.2864 10.4992 12.5348 9.48487 12.2378 8.53485C11.6091 6.63301 11.2895 4.63737 11.2895 2.60527C11.2895 1.16887 10.1206 0 8.68424 0H2.60527C1.16887 0 0 1.16887 0 2.60527C0 19.364 13.636 33 30.3947 33C31.8311 33 33 31.8311 33 30.3947V24.3332C33 22.8968 31.8311 21.7279 30.3947 21.7279Z" fill="black" fill-opacity="0.8"/>
</svg>
