<svg width="38" height="37" viewBox="0 0 38 37" fill="none" xmlns="http://www.w3.org/2000/svg">
<path d="M19 0C8.50819 0 0 8.28429 0 18.5C0 28.7157 8.50819 37 19 37C29.4918 37 38 28.7157 38 18.5C38 8.28429 29.4918 0 19 0ZM27.6752 14.4243C27.6836 14.6064 27.6877 14.7893 27.6877 14.9731C27.6877 20.5841 23.3012 27.0544 15.2795 27.0547H15.2798H15.2795C12.8167 27.0547 10.5249 26.3518 8.59488 25.1473C8.93611 25.1865 9.28343 25.206 9.6351 25.206C11.6784 25.206 13.5588 24.5274 15.0516 23.3884C13.1425 23.3539 11.5329 22.1263 10.9774 20.439C11.2433 20.4887 11.5167 20.5158 11.797 20.5158C12.1951 20.5158 12.5807 20.4636 12.9471 20.3662C10.9516 19.9772 9.44839 18.2601 9.44839 16.2039C9.44839 16.1847 9.44839 16.1675 9.44897 16.1497C10.0366 16.4678 10.7087 16.6592 11.4242 16.6807C10.2532 15.9199 9.48347 14.6194 9.48347 13.1461C9.48347 12.3681 9.69946 11.6393 10.074 11.0118C12.2246 13.5811 15.4387 15.2709 19.0632 15.4485C18.9884 15.1374 18.9498 14.8133 18.9498 14.4802C18.9498 12.1361 20.903 10.2343 23.3114 10.2343C24.5658 10.2343 25.6988 10.7506 26.4946 11.576C27.4882 11.3852 28.4211 11.0318 29.2639 10.5454C28.9378 11.5365 28.2466 12.3681 27.3461 12.8941C28.2283 12.7913 29.0691 12.5635 29.8504 12.2253C29.2668 13.077 28.5267 13.825 27.6752 14.4243Z" fill="black" fill-opacity="0.81"/>
</svg>
