<svg width="38" height="37" viewBox="0 0 38 37" fill="none" xmlns="http://www.w3.org/2000/svg">
<path d="M19 0C8.50819 0 0 8.28429 0 18.5C0 28.7157 8.50819 37 19 37C29.4918 37 38 28.7157 38 18.5C38 8.28429 29.4918 0 19 0ZM19.4027 29.2712C19.4024 29.2712 19.403 29.2712 19.4027 29.2712H19.3981C17.4948 29.2704 15.6245 28.8058 13.9636 27.9239L7.93532 29.4632L9.54871 23.7271C8.55342 22.0486 8.02983 20.1443 8.0307 18.1934C8.03331 12.0904 13.1347 7.12522 19.4027 7.12522C22.4445 7.12635 25.2999 8.27921 27.4467 10.3712C29.5939 12.4636 30.7756 15.2447 30.7744 18.2022C30.7718 24.3055 25.6698 29.2712 19.4027 29.2712Z" fill="black" fill-opacity="0.81"/>
<path d="M19.4061 8.99481C14.1926 8.99481 9.95252 13.1216 9.9502 18.1943C9.94962 19.9326 10.4494 21.6255 11.3954 23.0903L11.6201 23.4383L10.6651 26.8334L14.2424 25.9199L14.5877 26.1192C16.0387 26.9576 17.7023 27.4011 19.3983 27.4017H19.4021C24.6116 27.4017 28.8516 23.2746 28.8539 18.2016C28.8548 15.7432 27.8726 13.4318 26.0881 11.6929C24.3037 9.95403 21.9304 8.99566 19.4061 8.99481ZM24.9656 22.1497C24.7287 22.7956 23.5937 23.3853 23.0478 23.4649C22.5581 23.536 21.9388 23.5657 21.2581 23.3553C20.8453 23.2278 20.3162 23.0575 19.6381 22.7727C16.7879 21.5747 14.9263 18.7812 14.7843 18.5965C14.6422 18.4119 13.624 17.0967 13.624 15.7353C13.624 14.3741 14.3581 13.7048 14.6184 13.4281C14.8791 13.1512 15.187 13.0821 15.3763 13.0821C15.5656 13.0821 15.7552 13.0837 15.9207 13.0917C16.0953 13.1001 16.3295 13.027 16.56 13.5665C16.7969 14.1203 17.3651 15.4815 17.4361 15.6198C17.5072 15.7584 17.5544 15.9199 17.4599 16.1045C17.3651 16.2891 17.0503 16.6874 16.7496 17.0505C16.6235 17.2026 16.4591 17.3381 16.625 17.615C16.7905 17.8917 17.3611 18.7975 18.2056 19.5309C19.291 20.4732 20.2066 20.7651 20.4907 20.9037C20.7745 21.042 20.9404 21.0189 21.1062 20.8345C21.2717 20.6499 21.8165 20.0269 22.0058 19.75C22.1951 19.473 22.3847 19.5193 22.6451 19.6116C22.9057 19.7037 24.3025 20.373 24.5867 20.5113C24.8708 20.6499 25.0601 20.7191 25.1311 20.8345C25.2024 20.95 25.2024 21.5035 24.9656 22.1497Z" fill="black" fill-opacity="0.81"/>
</svg>
