<svg width="38" height="37" viewBox="0 0 38 37" fill="none" xmlns="http://www.w3.org/2000/svg">
<path d="M16.6338 21.9659L22.8142 18.5L16.6338 15.0341V21.9659Z" fill="black" fill-opacity="0.81"/>
<path d="M19 0C8.50819 0 0 8.28429 0 18.5C0 28.7157 8.50819 37 19 37C29.4918 37 38 28.7157 38 18.5C38 8.28429 29.4918 0 19 0ZM30.8721 18.5189C30.8721 18.5189 30.8721 22.2708 30.3833 24.08C30.1093 25.0702 29.3074 25.8511 28.2904 26.1175C26.4323 26.5938 19 26.5938 19 26.5938C19 26.5938 11.5871 26.5938 9.70961 26.0986C8.69258 25.8321 7.89067 25.051 7.6167 24.0608C7.12761 22.2708 7.12761 18.5 7.12761 18.5C7.12761 18.5 7.12761 14.7484 7.6167 12.9392C7.89038 11.949 8.71201 11.1489 9.70961 10.8825C11.5677 10.4062 19 10.4062 19 10.4062C19 10.4062 26.4323 10.4062 28.2904 10.9014C29.3074 11.1679 30.1093 11.949 30.3833 12.9392C30.8918 14.7484 30.8721 18.5189 30.8721 18.5189Z" fill="black" fill-opacity="0.81"/>
</svg>
