<svg width="1060" height="958" viewBox="0 0 1060 958" fill="none" xmlns="http://www.w3.org/2000/svg">
<path d="M945.388 607.292C899.637 771.587 610.594 816.987 412.401 778.986C214.209 740.985 160.414 454.661 206.165 290.366C251.916 126.07 644.857 103.059 843.049 141.06C1041.24 179.061 938.229 440.599 945.388 607.292Z" fill="#4D70FF" fill-opacity="0.72"/>
<path d="M933.69 311.229C1072.27 431.835 960.574 654.333 815.228 769.324C669.882 884.316 355.914 765.519 217.334 644.914C78.7536 524.308 269.098 242.869 414.444 127.878C559.79 12.8858 764.014 225.533 933.69 311.229Z" fill="#4E5AF2"/>
<path d="M288.943 359.752H311.355C320.086 359.752 326.561 361.056 330.779 363.663C335.027 366.241 337.151 370.27 337.151 375.748C337.151 379.352 336.229 382.428 334.383 384.977C332.537 387.525 330.105 389.166 327.088 389.898V390.338C331.072 391.393 333.958 393.15 335.745 395.611C337.532 398.072 338.426 401.266 338.426 405.191C338.426 411.021 336.229 415.621 331.834 418.99C327.469 422.33 321.507 424 313.948 424H288.943V359.752ZM306.302 384.405H311.531C314.021 384.405 315.94 383.893 317.288 382.867C318.665 381.842 319.354 380.318 319.354 378.297C319.354 374.693 316.629 372.892 311.18 372.892H306.302V384.405ZM306.302 397.105V410.597H312.41C317.83 410.597 320.54 408.312 320.54 403.741C320.54 401.603 319.808 399.962 318.343 398.819C316.907 397.677 314.812 397.105 312.059 397.105H306.302ZM364.048 424H346.865V374.21H364.048V424ZM346.426 361.817C346.426 359.239 347.143 357.32 348.579 356.061C350.014 354.801 352.329 354.171 355.522 354.171C358.716 354.171 361.045 354.815 362.51 356.104C363.974 357.394 364.707 359.298 364.707 361.817C364.707 366.856 361.645 369.376 355.522 369.376C349.458 369.376 346.426 366.856 346.426 361.817ZM411.686 424H370.465V414.2L391.076 387.35H371.652V374.21H410.719V384.845L390.988 410.86H411.686V424ZM465.038 374.21V382.516L458.226 385.021C459.163 386.72 459.632 388.697 459.632 390.953C459.632 396.314 457.743 400.475 453.963 403.434C450.213 406.393 444.603 407.872 437.132 407.872C435.287 407.872 433.822 407.755 432.738 407.521C432.328 408.282 432.122 409 432.122 409.674C432.122 410.523 432.811 411.183 434.188 411.651C435.565 412.091 437.367 412.311 439.593 412.311H447.855C459.017 412.311 464.598 417.013 464.598 426.417C464.598 432.481 462.005 437.198 456.82 440.567C451.663 443.937 444.413 445.621 435.067 445.621C428.006 445.621 422.557 444.435 418.719 442.062C414.911 439.718 413.006 436.334 413.006 431.91C413.006 425.963 416.698 422.125 424.08 420.396C422.557 419.752 421.224 418.712 420.081 417.276C418.968 415.841 418.412 414.42 418.412 413.014C418.412 411.461 418.836 410.099 419.686 408.927C420.536 407.726 422.308 406.305 425.003 404.664C422.425 403.521 420.389 401.734 418.895 399.303C417.43 396.871 416.698 393.912 416.698 390.426C416.698 385.006 418.543 380.802 422.235 377.813C425.926 374.825 431.2 373.331 438.055 373.331C438.963 373.331 440.531 373.434 442.757 373.639C444.984 373.844 446.624 374.034 447.679 374.21H465.038ZM427.508 430.196C427.508 431.603 428.27 432.73 429.793 433.58C431.317 434.459 433.353 434.898 435.902 434.898C440.062 434.898 443.387 434.371 445.877 433.316C448.397 432.291 449.657 430.958 449.657 429.317C449.657 427.999 448.895 427.062 447.371 426.505C445.848 425.978 443.665 425.714 440.824 425.714H434.1C432.254 425.714 430.687 426.139 429.398 426.988C428.138 427.867 427.508 428.937 427.508 430.196ZM432.913 390.514C432.913 395.611 434.686 398.16 438.231 398.16C439.871 398.16 441.131 397.53 442.01 396.271C442.918 395.011 443.372 393.121 443.372 390.602C443.372 385.445 441.659 382.867 438.231 382.867C434.686 382.867 432.913 385.416 432.913 390.514ZM503.316 424L500.02 417.408H499.668C497.354 420.279 494.995 422.242 492.593 423.297C490.191 424.352 487.085 424.879 483.277 424.879C478.589 424.879 474.898 423.473 472.202 420.66C469.507 417.848 468.159 413.893 468.159 408.795C468.159 403.492 470.005 399.552 473.696 396.974C477.388 394.366 482.735 392.901 489.737 392.579L498.042 392.315V391.612C498.042 387.511 496.021 385.46 491.978 385.46C488.345 385.46 483.731 386.69 478.135 389.151L473.169 377.813C478.97 374.825 486.294 373.331 495.142 373.331C501.529 373.331 506.465 374.913 509.951 378.077C513.467 381.241 515.225 385.665 515.225 391.349V424H503.316ZM490.571 412.75C492.652 412.75 494.424 412.091 495.889 410.772C497.383 409.454 498.13 407.74 498.13 405.631V401.764L494.175 401.939C488.521 402.145 485.694 404.225 485.694 408.18C485.694 411.227 487.32 412.75 490.571 412.75ZM563.964 424H546.781V374.21H563.964V424ZM546.342 361.817C546.342 359.239 547.059 357.32 548.495 356.061C549.93 354.801 552.245 354.171 555.438 354.171C558.632 354.171 560.961 354.815 562.426 356.104C563.89 357.394 564.623 359.298 564.623 361.817C564.623 366.856 561.561 369.376 555.438 369.376C549.374 369.376 546.342 366.856 546.342 361.817ZM612.613 408.707C612.613 414.039 610.796 418.067 607.164 420.792C603.531 423.517 598.316 424.879 591.519 424.879C587.828 424.879 584.62 424.674 581.895 424.264C579.171 423.883 576.387 423.165 573.546 422.11V408.355C576.212 409.527 579.127 410.494 582.291 411.256C585.484 412.018 588.326 412.398 590.816 412.398C594.537 412.398 596.397 411.549 596.397 409.85C596.397 408.971 595.87 408.194 594.815 407.521C593.79 406.817 590.772 405.47 585.762 403.478C581.192 401.603 577.999 399.479 576.182 397.105C574.366 394.703 573.458 391.671 573.458 388.009C573.458 383.38 575.245 379.776 578.819 377.198C582.393 374.62 587.447 373.331 593.98 373.331C597.261 373.331 600.337 373.697 603.209 374.43C606.109 375.133 609.112 376.173 612.217 377.55L607.559 388.624C605.274 387.599 602.857 386.734 600.308 386.031C597.759 385.299 595.679 384.933 594.068 384.933C591.255 384.933 589.849 385.621 589.849 386.998C589.849 387.848 590.333 388.58 591.299 389.195C592.296 389.781 595.137 390.997 599.825 392.843C603.311 394.278 605.904 395.685 607.603 397.062C609.332 398.438 610.591 400.064 611.382 401.939C612.203 403.785 612.613 406.041 612.613 408.707ZM651.682 424V396.842C651.682 390.162 649.704 386.822 645.749 386.822C642.937 386.822 640.857 388.009 639.509 390.382C638.191 392.726 637.532 396.637 637.532 402.115V424H620.349V355.621H637.532V365.333C637.532 369.728 637.297 374.737 636.829 380.362H637.62C639.26 377.784 641.208 375.968 643.464 374.913C645.72 373.858 648.342 373.331 651.33 373.331C656.897 373.331 661.218 374.942 664.294 378.165C667.4 381.358 668.953 385.841 668.953 391.612V424H651.682ZM726.391 398.995C726.391 407.14 724.194 413.497 719.799 418.067C715.434 422.608 709.311 424.879 701.43 424.879C693.871 424.879 687.851 422.55 683.368 417.892C678.915 413.233 676.689 406.935 676.689 398.995C676.689 390.88 678.871 384.581 683.237 380.099C687.631 375.587 693.783 373.331 701.694 373.331C706.586 373.331 710.907 374.371 714.657 376.451C718.407 378.531 721.293 381.52 723.315 385.416C725.365 389.283 726.391 393.81 726.391 398.995ZM694.135 398.995C694.135 403.272 694.706 406.539 695.849 408.795C696.991 411.021 698.91 412.135 701.606 412.135C704.272 412.135 706.147 411.021 707.231 408.795C708.344 406.539 708.901 403.272 708.901 398.995C708.901 394.747 708.344 391.539 707.231 389.371C706.117 387.203 704.213 386.119 701.518 386.119C698.881 386.119 696.991 387.203 695.849 389.371C694.706 391.51 694.135 394.718 694.135 398.995ZM765.855 424V396.842C765.855 393.531 765.372 391.041 764.405 389.371C763.468 387.672 761.944 386.822 759.835 386.822C756.935 386.822 754.84 387.979 753.551 390.294C752.262 392.608 751.617 396.578 751.617 402.203V424H734.435V374.21H747.398L749.552 380.362H750.562C752.027 378.019 754.049 376.261 756.627 375.089C759.234 373.917 762.223 373.331 765.592 373.331C771.1 373.331 775.377 374.928 778.424 378.121C781.5 381.314 783.038 385.812 783.038 391.612V424H765.855ZM810.198 424H793.015V374.21H810.198V424ZM792.576 361.817C792.576 359.239 793.294 357.32 794.729 356.061C796.165 354.801 798.479 354.171 801.673 354.171C804.866 354.171 807.195 354.815 808.66 356.104C810.125 357.394 810.857 359.298 810.857 361.817C810.857 366.856 807.796 369.376 801.673 369.376C795.608 369.376 792.576 366.856 792.576 361.817ZM851.816 424V396.842C851.816 393.531 851.333 391.041 850.366 389.371C849.428 387.672 847.905 386.822 845.796 386.822C842.895 386.822 840.8 387.979 839.511 390.294C838.222 392.608 837.578 396.578 837.578 402.203V424H820.395V374.21H833.359L835.512 380.362H836.523C837.988 378.019 840.009 376.261 842.588 375.089C845.195 373.917 848.183 373.331 851.552 373.331C857.06 373.331 861.338 374.928 864.384 378.121C867.461 381.314 868.999 385.812 868.999 391.612V424H851.816ZM925.866 374.21V382.516L919.054 385.021C919.992 386.72 920.46 388.697 920.46 390.953C920.46 396.314 918.571 400.475 914.791 403.434C911.041 406.393 905.431 407.872 897.96 407.872C896.115 407.872 894.65 407.755 893.566 407.521C893.156 408.282 892.951 409 892.951 409.674C892.951 410.523 893.639 411.183 895.016 411.651C896.393 412.091 898.195 412.311 900.421 412.311H908.683C919.845 412.311 925.426 417.013 925.426 426.417C925.426 432.481 922.833 437.198 917.648 440.567C912.492 443.937 905.241 445.621 895.895 445.621C888.834 445.621 883.385 444.435 879.547 442.062C875.739 439.718 873.834 436.334 873.834 431.91C873.834 425.963 877.526 422.125 884.909 420.396C883.385 419.752 882.052 418.712 880.91 417.276C879.796 415.841 879.24 414.42 879.24 413.014C879.24 411.461 879.664 410.099 880.514 408.927C881.364 407.726 883.136 406.305 885.831 404.664C883.253 403.521 881.217 401.734 879.723 399.303C878.258 396.871 877.526 393.912 877.526 390.426C877.526 385.006 879.371 380.802 883.063 377.813C886.754 374.825 892.028 373.331 898.883 373.331C899.791 373.331 901.359 373.434 903.585 373.639C905.812 373.844 907.453 374.034 908.507 374.21H925.866ZM888.336 430.196C888.336 431.603 889.098 432.73 890.621 433.58C892.145 434.459 894.181 434.898 896.73 434.898C900.89 434.898 904.215 434.371 906.705 433.316C909.225 432.291 910.485 430.958 910.485 429.317C910.485 427.999 909.723 427.062 908.2 426.505C906.676 425.978 904.494 425.714 901.652 425.714H894.928C893.082 425.714 891.515 426.139 890.226 426.988C888.966 427.867 888.336 428.937 888.336 430.196ZM893.742 390.514C893.742 395.611 895.514 398.16 899.059 398.16C900.7 398.16 901.959 397.53 902.838 396.271C903.746 395.011 904.201 393.121 904.201 390.602C904.201 385.445 902.487 382.867 899.059 382.867C895.514 382.867 893.742 385.416 893.742 390.514ZM300.984 522L282 472.21H299.93L308.367 501.653C308.396 501.8 308.455 502.049 308.543 502.4C308.631 502.752 308.719 503.177 308.807 503.675C308.895 504.144 308.968 504.656 309.026 505.213C309.114 505.74 309.158 506.238 309.158 506.707H309.466C309.466 505.184 309.729 503.528 310.257 501.741L319.09 472.21H336.976L317.991 522H300.984ZM373.628 522L370.332 515.408H369.98C367.666 518.279 365.307 520.242 362.905 521.297C360.503 522.352 357.397 522.879 353.589 522.879C348.901 522.879 345.21 521.473 342.514 518.66C339.819 515.848 338.471 511.893 338.471 506.795C338.471 501.492 340.317 497.552 344.009 494.974C347.7 492.366 353.047 490.901 360.049 490.579L368.354 490.315V489.612C368.354 485.511 366.333 483.46 362.29 483.46C358.657 483.46 354.043 484.69 348.447 487.151L343.481 475.813C349.282 472.825 356.606 471.331 365.454 471.331C371.841 471.331 376.777 472.913 380.263 476.077C383.779 479.241 385.537 483.665 385.537 489.349V522H373.628ZM360.884 510.75C362.964 510.75 364.736 510.091 366.201 508.772C367.695 507.454 368.442 505.74 368.442 503.631V499.764L364.487 499.939C358.833 500.145 356.006 502.225 356.006 506.18C356.006 509.227 357.632 510.75 360.884 510.75ZM448.426 522V494.842C448.426 491.531 447.943 489.041 446.976 487.371C446.038 485.672 444.515 484.822 442.406 484.822C439.505 484.822 437.411 485.979 436.121 488.294C434.832 490.608 434.188 494.578 434.188 500.203V522H417.005V472.21H429.969L432.122 478.362H433.133C434.598 476.019 436.62 474.261 439.198 473.089C441.805 471.917 444.793 471.331 448.163 471.331C453.67 471.331 457.948 472.928 460.995 476.121C464.071 479.314 465.609 483.812 465.609 489.612V522H448.426ZM507.974 522L504.678 515.408H504.326C502.012 518.279 499.654 520.242 497.251 521.297C494.849 522.352 491.743 522.879 487.935 522.879C483.247 522.879 479.556 521.473 476.861 518.66C474.165 515.848 472.818 511.893 472.818 506.795C472.818 501.492 474.663 497.552 478.355 494.974C482.046 492.366 487.393 490.901 494.395 490.579L502.7 490.315V489.612C502.7 485.511 500.679 483.46 496.636 483.46C493.003 483.46 488.389 484.69 482.793 487.151L477.827 475.813C483.628 472.825 490.952 471.331 499.8 471.331C506.187 471.331 511.123 472.913 514.61 476.077C518.125 479.241 519.883 483.665 519.883 489.349V522H507.974ZM495.23 510.75C497.31 510.75 499.082 510.091 500.547 508.772C502.041 507.454 502.788 505.74 502.788 503.631V499.764L498.833 499.939C493.179 500.145 490.352 502.225 490.352 506.18C490.352 509.227 491.978 510.75 495.23 510.75ZM554.162 509.3C556.477 509.3 559.245 508.729 562.468 507.586V520.11C560.153 521.106 557.941 521.81 555.832 522.22C553.752 522.659 551.306 522.879 548.493 522.879C542.722 522.879 538.562 521.473 536.013 518.66C533.464 515.818 532.189 511.468 532.189 505.608V485.086H526.169V478.099L533.815 472.693L538.254 462.234H549.504V472.21H561.721V485.086H549.504V504.466C549.504 507.688 551.057 509.3 554.162 509.3ZM586.639 522H569.457V472.21H586.639V522ZM569.017 459.817C569.017 457.239 569.735 455.32 571.171 454.061C572.606 452.801 574.921 452.171 578.114 452.171C581.307 452.171 583.637 452.815 585.101 454.104C586.566 455.394 587.299 457.298 587.299 459.817C587.299 464.856 584.237 467.376 578.114 467.376C572.05 467.376 569.017 464.856 569.017 459.817ZM595.562 543.621C594.156 543.621 592.545 543.504 590.728 543.27C588.882 543.064 587.418 542.815 586.334 542.522V529.119C588.209 529.646 589.966 529.91 591.607 529.91C595.093 529.91 596.837 527.42 596.837 522.439V472.21H614.019V526.043C614.019 531.521 612.408 535.813 609.185 538.919C605.992 542.054 601.451 543.621 595.562 543.621ZM596.397 459.817C596.397 457.239 597.115 455.32 598.55 454.061C599.986 452.801 602.3 452.171 605.494 452.171C608.687 452.171 611.016 452.815 612.481 454.104C613.946 455.394 614.678 457.298 614.678 459.817C614.678 464.856 611.617 467.376 605.494 467.376C599.429 467.376 596.397 464.856 596.397 459.817ZM656.692 522L653.396 515.408H653.044C650.73 518.279 648.371 520.242 645.969 521.297C643.567 522.352 640.461 522.879 636.653 522.879C631.965 522.879 628.274 521.473 625.579 518.66C622.883 515.848 621.536 511.893 621.536 506.795C621.536 501.492 623.381 497.552 627.073 494.974C630.764 492.366 636.111 490.901 643.113 490.579L651.418 490.315V489.612C651.418 485.511 649.397 483.46 645.354 483.46C641.721 483.46 637.107 484.69 631.511 487.151L626.545 475.813C632.346 472.825 639.67 471.331 648.518 471.331C654.905 471.331 659.841 472.913 663.328 476.077C666.843 479.241 668.601 483.665 668.601 489.349V522H656.692ZM643.948 510.75C646.028 510.75 647.8 510.091 649.265 508.772C650.759 507.454 651.506 505.74 651.506 503.631V499.764L647.551 499.939C641.897 500.145 639.07 502.225 639.07 506.18C639.07 509.227 640.696 510.75 643.948 510.75ZM725.468 472.21V480.516L718.656 483.021C719.594 484.72 720.063 486.697 720.063 488.953C720.063 494.314 718.173 498.475 714.394 501.434C710.644 504.393 705.033 505.872 697.563 505.872C695.717 505.872 694.252 505.755 693.168 505.521C692.758 506.282 692.553 507 692.553 507.674C692.553 508.523 693.241 509.183 694.618 509.651C695.995 510.091 697.797 510.311 700.024 510.311H708.285C719.447 510.311 725.029 515.013 725.029 524.417C725.029 530.481 722.436 535.198 717.25 538.567C712.094 541.937 704.843 543.621 695.497 543.621C688.437 543.621 682.987 542.435 679.15 540.062C675.341 537.718 673.437 534.334 673.437 529.91C673.437 523.963 677.128 520.125 684.511 518.396C682.987 517.752 681.654 516.712 680.512 515.276C679.399 513.841 678.842 512.42 678.842 511.014C678.842 509.461 679.267 508.099 680.116 506.927C680.966 505.726 682.738 504.305 685.434 502.664C682.856 501.521 680.82 499.734 679.325 497.303C677.861 494.871 677.128 491.912 677.128 488.426C677.128 483.006 678.974 478.802 682.665 475.813C686.357 472.825 691.63 471.331 698.486 471.331C699.394 471.331 700.961 471.434 703.188 471.639C705.414 471.844 707.055 472.034 708.11 472.21H725.468ZM687.939 528.196C687.939 529.603 688.7 530.73 690.224 531.58C691.747 532.459 693.783 532.898 696.332 532.898C700.492 532.898 703.818 532.371 706.308 531.316C708.827 530.291 710.087 528.958 710.087 527.317C710.087 525.999 709.325 525.062 707.802 524.505C706.279 523.978 704.096 523.714 701.254 523.714H694.53C692.685 523.714 691.117 524.139 689.828 524.988C688.569 525.867 687.939 526.937 687.939 528.196ZM693.344 488.514C693.344 493.611 695.116 496.16 698.661 496.16C700.302 496.16 701.562 495.53 702.441 494.271C703.349 493.011 703.803 491.121 703.803 488.602C703.803 483.445 702.089 480.867 698.661 480.867C695.116 480.867 693.344 483.416 693.344 488.514ZM763.746 522L760.45 515.408H760.099C757.784 518.279 755.426 520.242 753.023 521.297C750.621 522.352 747.516 522.879 743.707 522.879C739.02 522.879 735.328 521.473 732.633 518.66C729.938 515.848 728.59 511.893 728.59 506.795C728.59 501.492 730.436 497.552 734.127 494.974C737.818 492.366 743.165 490.901 750.167 490.579L758.473 490.315V489.612C758.473 485.511 756.451 483.46 752.408 483.46C748.775 483.46 744.161 484.69 738.565 487.151L733.6 475.813C739.4 472.825 746.725 471.331 755.572 471.331C761.959 471.331 766.896 472.913 770.382 476.077C773.897 479.241 775.655 483.665 775.655 489.349V522H763.746ZM751.002 510.75C753.082 510.75 754.854 510.091 756.319 508.772C757.813 507.454 758.561 505.74 758.561 503.631V499.764L754.605 499.939C748.951 500.145 746.124 502.225 746.124 506.18C746.124 509.227 747.75 510.75 751.002 510.75ZM311.971 620.879C303.68 620.879 297.234 618.682 292.635 614.287C288.064 609.863 285.779 603.579 285.779 595.435C285.779 587.026 287.903 580.581 292.151 576.099C296.399 571.587 302.464 569.331 310.345 569.331C317.845 569.331 323.631 571.294 327.703 575.22C331.805 579.116 333.855 584.741 333.855 592.095V599.741H303.138C303.255 602.524 304.266 604.707 306.17 606.289C308.104 607.871 310.726 608.662 314.036 608.662C317.054 608.662 319.822 608.384 322.342 607.827C324.891 607.241 327.645 606.26 330.604 604.883V617.231C327.908 618.608 325.125 619.561 322.254 620.088C319.383 620.615 315.955 620.879 311.971 620.879ZM310.96 581.021C308.938 581.021 307.239 581.665 305.862 582.954C304.515 584.214 303.724 586.206 303.489 588.931H318.255C318.196 586.528 317.508 584.609 316.189 583.174C314.9 581.738 313.157 581.021 310.96 581.021ZM371.826 569.331C373.32 569.331 374.741 569.448 376.089 569.683L377.055 569.858L375.517 586.074C374.111 585.723 372.163 585.547 369.673 585.547C365.923 585.547 363.198 586.411 361.499 588.14C359.8 589.839 358.95 592.3 358.95 595.522V620H341.767V570.21H354.555L357.236 578.164H358.071C359.507 575.527 361.499 573.403 364.048 571.792C366.626 570.151 369.219 569.331 371.826 569.331ZM399.513 620H382.331V570.21H399.513V620ZM381.891 557.817C381.891 555.239 382.609 553.32 384.045 552.061C385.48 550.801 387.795 550.171 390.988 550.171C394.181 550.171 396.51 550.815 397.975 552.104C399.44 553.394 400.172 555.298 400.172 557.817C400.172 562.856 397.111 565.376 390.988 565.376C384.923 565.376 381.891 562.856 381.891 557.817ZM448.162 604.707C448.162 610.039 446.346 614.067 442.713 616.792C439.08 619.517 433.866 620.879 427.069 620.879C423.377 620.879 420.169 620.674 417.445 620.264C414.72 619.883 411.937 619.165 409.095 618.11V604.355C411.761 605.527 414.676 606.494 417.84 607.256C421.034 608.018 423.875 608.398 426.366 608.398C430.086 608.398 431.947 607.549 431.947 605.85C431.947 604.971 431.419 604.194 430.365 603.521C429.339 602.817 426.322 601.47 421.312 599.478C416.742 597.603 413.548 595.479 411.732 593.105C409.915 590.703 409.007 587.671 409.007 584.009C409.007 579.38 410.794 575.776 414.369 573.198C417.943 570.62 422.996 569.331 429.53 569.331C432.811 569.331 435.887 569.697 438.758 570.43C441.659 571.133 444.662 572.173 447.767 573.55L443.109 584.624C440.824 583.599 438.407 582.734 435.858 582.031C433.309 581.299 431.229 580.933 429.618 580.933C426.805 580.933 425.399 581.621 425.399 582.998C425.399 583.848 425.882 584.58 426.849 585.195C427.845 585.781 430.687 586.997 435.374 588.843C438.861 590.278 441.454 591.685 443.153 593.062C444.881 594.438 446.141 596.064 446.932 597.939C447.752 599.785 448.162 602.041 448.162 604.707ZM487.232 620V592.842C487.232 586.162 485.254 582.822 481.299 582.822C478.487 582.822 476.406 584.009 475.059 586.382C473.74 588.726 473.081 592.637 473.081 598.115V620H455.899V551.621H473.081V561.333C473.081 565.728 472.847 570.737 472.378 576.362H473.169C474.81 573.784 476.758 571.968 479.014 570.913C481.27 569.858 483.892 569.331 486.88 569.331C492.446 569.331 496.768 570.942 499.844 574.165C502.949 577.358 504.502 581.841 504.502 587.612V620H487.232ZM531.662 620H514.479V570.21H531.662V620ZM514.04 557.817C514.04 555.239 514.758 553.32 516.193 552.061C517.629 550.801 519.943 550.171 523.137 550.171C526.33 550.171 528.659 550.815 530.124 552.104C531.589 553.394 532.321 555.298 532.321 557.817C532.321 562.856 529.26 565.376 523.137 565.376C517.072 565.376 514.04 562.856 514.04 557.817ZM573.28 620V592.842C573.28 589.531 572.797 587.041 571.83 585.371C570.892 583.672 569.369 582.822 567.26 582.822C564.359 582.822 562.264 583.979 560.975 586.294C559.686 588.608 559.042 592.578 559.042 598.203V620H541.859V570.21H554.823L556.976 576.362H557.987C559.452 574.019 561.473 572.261 564.052 571.089C566.659 569.917 569.647 569.331 573.016 569.331C578.524 569.331 582.802 570.928 585.848 574.121C588.925 577.314 590.463 581.812 590.463 587.612V620H573.28ZM647.33 570.21V578.516L640.518 581.021C641.456 582.72 641.924 584.697 641.924 586.953C641.924 592.314 640.035 596.475 636.255 599.434C632.505 602.393 626.895 603.872 619.424 603.872C617.579 603.872 616.114 603.755 615.03 603.521C614.62 604.282 614.415 605 614.415 605.674C614.415 606.523 615.103 607.183 616.48 607.651C617.857 608.091 619.659 608.311 621.885 608.311H630.147C641.309 608.311 646.89 613.013 646.89 622.417C646.89 628.481 644.297 633.198 639.112 636.567C633.956 639.937 626.705 641.621 617.359 641.621C610.298 641.621 604.849 640.435 601.011 638.062C597.203 635.718 595.298 632.334 595.298 627.91C595.298 621.963 598.99 618.125 606.373 616.396C604.849 615.752 603.516 614.712 602.374 613.276C601.26 611.841 600.704 610.42 600.704 609.014C600.704 607.461 601.129 606.099 601.978 604.927C602.828 603.726 604.6 602.305 607.296 600.664C604.717 599.521 602.681 597.734 601.187 595.303C599.722 592.871 598.99 589.912 598.99 586.426C598.99 581.006 600.836 576.802 604.527 573.813C608.218 570.825 613.492 569.331 620.347 569.331C621.255 569.331 622.823 569.434 625.049 569.639C627.276 569.844 628.917 570.034 629.971 570.21H647.33ZM609.8 626.196C609.8 627.603 610.562 628.73 612.086 629.58C613.609 630.459 615.645 630.898 618.194 630.898C622.354 630.898 625.679 630.371 628.17 629.316C630.689 628.291 631.949 626.958 631.949 625.317C631.949 623.999 631.187 623.062 629.664 622.505C628.14 621.978 625.958 621.714 623.116 621.714H616.392C614.546 621.714 612.979 622.139 611.69 622.988C610.43 623.867 609.8 624.937 609.8 626.196ZM615.206 586.514C615.206 591.611 616.978 594.16 620.523 594.16C622.164 594.16 623.423 593.53 624.302 592.271C625.211 591.011 625.665 589.121 625.665 586.602C625.665 581.445 623.951 578.867 620.523 578.867C616.978 578.867 615.206 581.416 615.206 586.514Z" fill="white"/>
</svg>
